<mxfile host="app.diagrams.net" modified="2024-02-20T17:27:41.462Z" agent="Mozilla/5.0 (Macintosh; Intel Mac OS X 10_15_7) AppleWebKit/605.1.15 (KHTML, like Gecko) Version/16.5 Safari/605.1.15" etag="bxkKsP0DjkqEUmkXlg0E" version="23.1.5" type="github">
  <diagram name="Страница — 1" id="yua7qqaj4lyKArtTyUZU">
    <mxGraphModel dx="984" dy="667" grid="1" gridSize="10" guides="1" tooltips="1" connect="1" arrows="1" fold="1" page="1" pageScale="1" pageWidth="827" pageHeight="1169" math="0" shadow="0">
      <root>
        <mxCell id="0" />
        <mxCell id="1" parent="0" />
        <mxCell id="d_SSu0a-xPiU64xZgLDZ-2" value="Окно авторизации" style="html=1;whiteSpace=wrap;" parent="1" vertex="1">
          <mxGeometry x="30" y="200" width="110" height="50" as="geometry" />
        </mxCell>
        <mxCell id="d_SSu0a-xPiU64xZgLDZ-3" value="Окно регистрации" style="html=1;whiteSpace=wrap;" parent="1" vertex="1">
          <mxGeometry x="140" y="50" width="110" height="50" as="geometry" />
        </mxCell>
        <mxCell id="d_SSu0a-xPiU64xZgLDZ-4" value="" style="endArrow=open;endFill=1;endSize=12;html=1;rounded=0;exitX=0.5;exitY=0;exitDx=0;exitDy=0;entryX=0;entryY=0.5;entryDx=0;entryDy=0;" parent="1" source="d_SSu0a-xPiU64xZgLDZ-2" target="d_SSu0a-xPiU64xZgLDZ-3" edge="1">
          <mxGeometry width="160" relative="1" as="geometry">
            <mxPoint x="330" y="290" as="sourcePoint" />
            <mxPoint x="490" y="290" as="targetPoint" />
            <Array as="points">
              <mxPoint x="85" y="135" />
            </Array>
          </mxGeometry>
        </mxCell>
        <mxCell id="d_SSu0a-xPiU64xZgLDZ-6" value="Главная страница&lt;br&gt;лента планов" style="html=1;whiteSpace=wrap;" parent="1" vertex="1">
          <mxGeometry x="170" y="290" width="110" height="50" as="geometry" />
        </mxCell>
        <mxCell id="d_SSu0a-xPiU64xZgLDZ-7" value="Тип пользователя" style="html=1;whiteSpace=wrap;" parent="1" vertex="1">
          <mxGeometry x="170" y="150" width="110" height="50" as="geometry" />
        </mxCell>
        <mxCell id="d_SSu0a-xPiU64xZgLDZ-9" value="" style="endArrow=open;endFill=1;endSize=12;html=1;rounded=0;exitX=0.573;exitY=1.04;exitDx=0;exitDy=0;exitPerimeter=0;" parent="1" source="d_SSu0a-xPiU64xZgLDZ-3" target="d_SSu0a-xPiU64xZgLDZ-7" edge="1">
          <mxGeometry width="160" relative="1" as="geometry">
            <mxPoint x="330" y="290" as="sourcePoint" />
            <mxPoint x="490" y="290" as="targetPoint" />
          </mxGeometry>
        </mxCell>
        <mxCell id="d_SSu0a-xPiU64xZgLDZ-10" value="" style="endArrow=open;endFill=1;endSize=12;html=1;rounded=0;exitX=0.5;exitY=1;exitDx=0;exitDy=0;entryX=0;entryY=0.5;entryDx=0;entryDy=0;" parent="1" source="d_SSu0a-xPiU64xZgLDZ-2" target="d_SSu0a-xPiU64xZgLDZ-6" edge="1">
          <mxGeometry width="160" relative="1" as="geometry">
            <mxPoint x="330" y="290" as="sourcePoint" />
            <mxPoint x="490" y="290" as="targetPoint" />
            <Array as="points">
              <mxPoint x="85" y="315" />
            </Array>
          </mxGeometry>
        </mxCell>
        <mxCell id="d_SSu0a-xPiU64xZgLDZ-11" value="Лента тренировок" style="html=1;whiteSpace=wrap;" parent="1" vertex="1">
          <mxGeometry x="330" y="140" width="110" height="50" as="geometry" />
        </mxCell>
        <mxCell id="d_SSu0a-xPiU64xZgLDZ-12" value="План тренировкок" style="html=1;whiteSpace=wrap;" parent="1" vertex="1">
          <mxGeometry x="335" y="220" width="110" height="50" as="geometry" />
        </mxCell>
        <mxCell id="d_SSu0a-xPiU64xZgLDZ-13" value="Тренировка" style="html=1;whiteSpace=wrap;" parent="1" vertex="1">
          <mxGeometry x="500" y="140" width="110" height="50" as="geometry" />
        </mxCell>
        <mxCell id="d_SSu0a-xPiU64xZgLDZ-26" value="Профиль" style="html=1;whiteSpace=wrap;" parent="1" vertex="1">
          <mxGeometry x="330" y="320" width="110" height="50" as="geometry" />
        </mxCell>
        <mxCell id="d_SSu0a-xPiU64xZgLDZ-34" value="Рейтинг" style="html=1;whiteSpace=wrap;" parent="1" vertex="1">
          <mxGeometry x="520" y="320" width="110" height="50" as="geometry" />
        </mxCell>
        <mxCell id="d_SSu0a-xPiU64xZgLDZ-35" value="" style="endArrow=open;endFill=1;endSize=12;html=1;rounded=0;exitX=1;exitY=0.5;exitDx=0;exitDy=0;entryX=0;entryY=0.5;entryDx=0;entryDy=0;" parent="1" source="d_SSu0a-xPiU64xZgLDZ-26" target="d_SSu0a-xPiU64xZgLDZ-34" edge="1">
          <mxGeometry width="160" relative="1" as="geometry">
            <mxPoint x="330" y="290" as="sourcePoint" />
            <mxPoint x="490" y="290" as="targetPoint" />
          </mxGeometry>
        </mxCell>
        <mxCell id="rR46YuDEnWutWiPu1DSL-1" value="" style="endArrow=open;endFill=1;endSize=12;html=1;rounded=0;exitX=0.5;exitY=1;exitDx=0;exitDy=0;entryX=0.5;entryY=0;entryDx=0;entryDy=0;" parent="1" source="d_SSu0a-xPiU64xZgLDZ-7" target="d_SSu0a-xPiU64xZgLDZ-6" edge="1">
          <mxGeometry width="160" relative="1" as="geometry">
            <mxPoint x="330" y="290" as="sourcePoint" />
            <mxPoint x="490" y="290" as="targetPoint" />
          </mxGeometry>
        </mxCell>
        <mxCell id="rR46YuDEnWutWiPu1DSL-4" value="" style="endArrow=open;endFill=1;endSize=12;html=1;rounded=0;exitX=1;exitY=0.5;exitDx=0;exitDy=0;entryX=0;entryY=0.5;entryDx=0;entryDy=0;" parent="1" source="d_SSu0a-xPiU64xZgLDZ-6" target="d_SSu0a-xPiU64xZgLDZ-11" edge="1">
          <mxGeometry width="160" relative="1" as="geometry">
            <mxPoint x="334" y="320" as="sourcePoint" />
            <mxPoint x="494" y="320" as="targetPoint" />
          </mxGeometry>
        </mxCell>
        <mxCell id="rR46YuDEnWutWiPu1DSL-5" value="" style="endArrow=open;endFill=1;endSize=12;html=1;rounded=0;exitX=1;exitY=0.5;exitDx=0;exitDy=0;entryX=0;entryY=0.5;entryDx=0;entryDy=0;" parent="1" source="d_SSu0a-xPiU64xZgLDZ-6" target="d_SSu0a-xPiU64xZgLDZ-26" edge="1">
          <mxGeometry width="160" relative="1" as="geometry">
            <mxPoint x="330" y="290" as="sourcePoint" />
            <mxPoint x="490" y="290" as="targetPoint" />
          </mxGeometry>
        </mxCell>
        <mxCell id="rR46YuDEnWutWiPu1DSL-6" value="" style="endArrow=open;endFill=1;endSize=12;html=1;rounded=0;entryX=0;entryY=0.5;entryDx=0;entryDy=0;" parent="1" target="d_SSu0a-xPiU64xZgLDZ-12" edge="1">
          <mxGeometry width="160" relative="1" as="geometry">
            <mxPoint x="280" y="310" as="sourcePoint" />
            <mxPoint x="490" y="290" as="targetPoint" />
          </mxGeometry>
        </mxCell>
        <mxCell id="rR46YuDEnWutWiPu1DSL-7" value="" style="endArrow=open;endFill=1;endSize=12;html=1;rounded=0;exitX=1;exitY=0.5;exitDx=0;exitDy=0;entryX=0;entryY=0.5;entryDx=0;entryDy=0;" parent="1" source="d_SSu0a-xPiU64xZgLDZ-12" target="d_SSu0a-xPiU64xZgLDZ-13" edge="1">
          <mxGeometry width="160" relative="1" as="geometry">
            <mxPoint x="330" y="290" as="sourcePoint" />
            <mxPoint x="490" y="290" as="targetPoint" />
          </mxGeometry>
        </mxCell>
        <mxCell id="4uGLrBEewB5E6X6AhYTx-1" value="Уведомления" style="rounded=0;whiteSpace=wrap;html=1;" vertex="1" parent="1">
          <mxGeometry x="325" y="400" width="120" height="60" as="geometry" />
        </mxCell>
        <mxCell id="4uGLrBEewB5E6X6AhYTx-2" value="" style="endArrow=classic;html=1;rounded=0;exitX=0.5;exitY=1;exitDx=0;exitDy=0;entryX=0;entryY=0.5;entryDx=0;entryDy=0;" edge="1" parent="1" source="d_SSu0a-xPiU64xZgLDZ-6" target="4uGLrBEewB5E6X6AhYTx-1">
          <mxGeometry width="50" height="50" relative="1" as="geometry">
            <mxPoint x="390" y="370" as="sourcePoint" />
            <mxPoint x="440" y="320" as="targetPoint" />
          </mxGeometry>
        </mxCell>
        <mxCell id="4uGLrBEewB5E6X6AhYTx-3" value="Добавление тренера и друзей" style="rounded=0;whiteSpace=wrap;html=1;" vertex="1" parent="1">
          <mxGeometry x="510" y="400" width="120" height="60" as="geometry" />
        </mxCell>
        <mxCell id="4uGLrBEewB5E6X6AhYTx-4" value="" style="endArrow=classic;html=1;rounded=0;entryX=0;entryY=0.5;entryDx=0;entryDy=0;exitX=1;exitY=0.5;exitDx=0;exitDy=0;" edge="1" parent="1" source="d_SSu0a-xPiU64xZgLDZ-26" target="4uGLrBEewB5E6X6AhYTx-3">
          <mxGeometry width="50" height="50" relative="1" as="geometry">
            <mxPoint x="390" y="370" as="sourcePoint" />
            <mxPoint x="440" y="320" as="targetPoint" />
          </mxGeometry>
        </mxCell>
        <mxCell id="4uGLrBEewB5E6X6AhYTx-5" value="" style="endArrow=classic;html=1;rounded=0;exitX=1;exitY=0.5;exitDx=0;exitDy=0;" edge="1" parent="1" source="d_SSu0a-xPiU64xZgLDZ-11">
          <mxGeometry width="50" height="50" relative="1" as="geometry">
            <mxPoint x="390" y="370" as="sourcePoint" />
            <mxPoint x="500" y="165" as="targetPoint" />
          </mxGeometry>
        </mxCell>
      </root>
    </mxGraphModel>
  </diagram>
</mxfile>
